<?xml version="1.0" standalone="no"?>
<!DOCTYPE svg PUBLIC "-//W3C//DTD SVG 20010904//EN"
 "http://www.w3.org/TR/2001/REC-SVG-20010904/DTD/svg10.dtd">
<svg version="1.0" xmlns="http://www.w3.org/2000/svg"
 width="1024.000000pt" height="1024.000000pt" viewBox="0 0 1024.000000 1024.000000"
 preserveAspectRatio="xMidYMid meet">

<g transform="translate(0.000000,1024.000000) scale(0.100000,-0.100000)"
fill="#000000" stroke="none">
<path d="M0 5120 l0 -5120 5120 0 5120 0 0 5120 0 5120 -5120 0 -5120 0 0
-5120z m5296 3956 c3 -8 0 -65 -6 -127 -6 -63 -15 -249 -20 -414 -5 -165 -14
-354 -20 -420 -5 -66 -10 -167 -10 -225 -1 -58 -4 -123 -8 -145 l-7 -40 -88 0
-87 0 0 134 c0 115 2 136 17 146 15 11 15 15 3 30 -8 10 -19 61 -26 119 -9 81
-8 121 3 201 15 103 6 274 -17 355 -15 53 -13 387 3 393 6 3 67 6 135 6 96 1
124 -2 128 -13z m546 -47 c97 -18 182 -35 188 -39 9 -5 5 -27 -13 -77 -14 -38
-55 -204 -92 -369 -36 -164 -76 -344 -90 -399 -13 -55 -35 -154 -50 -220 -55
-257 -75 -330 -96 -344 -16 -9 -24 -9 -35 0 -11 9 -14 8 -14 -7 0 -14 -3 -16
-9 -6 -9 14 -32 13 -43 -3 -5 -6 -8 -5 -8 2 0 7 -7 10 -15 7 -8 -4 -21 -1 -28
5 -8 6 -23 9 -35 6 -38 -7 -46 17 -38 127 3 56 13 160 21 232 27 235 54 477
75 681 12 110 30 252 41 316 10 64 19 120 19 124 0 4 10 5 23 2 12 -3 102 -20
199 -38z m-1173 -168 c142 -72 230 -252 218 -446 -8 -142 -81 -245 -174 -245
-92 0 -174 64 -241 187 -27 50 -32 54 -32 30 0 -23 -3 -26 -17 -19 -10 5 -23
7 -30 5 -35 -12 -29 197 7 272 12 26 30 49 39 53 20 7 66 44 68 55 3 11 54 52
74 60 11 3 27 -5 44 -23 15 -16 34 -26 41 -23 9 3 14 -3 14 -18 1 -22 2 -22
11 -6 8 13 7 22 -3 34 -22 27 -140 76 -184 76 -98 0 -189 -117 -229 -296 -25
-116 17 -395 85 -562 93 -229 196 -371 472 -651 114 -116 208 -214 208 -218 0
-4 -35 -4 -77 -1 -194 17 -445 -60 -620 -188 -33 -25 -101 -86 -151 -136 -67
-67 -92 -87 -101 -78 -7 7 -11 68 -11 184 l0 173 -113 0 c-135 0 -327 -23
-418 -50 -56 -17 -79 -31 -143 -89 -82 -75 -136 -102 -161 -81 -31 26 -234
309 -283 393 -66 115 -117 243 -138 348 -38 189 14 432 108 502 53 39 609 333
1103 582 143 72 287 146 319 165 114 65 201 68 315 11z m-1509 -171 c24 -23
30 -34 25 -52 -9 -28 -53 -88 -70 -94 -7 -3 -33 14 -59 37 -52 47 -53 64 -8
112 34 36 71 35 112 -3z m-499 -193 c102 -156 114 -177 99 -177 -6 0 -8 -5 -4
-12 4 -7 -9 -2 -30 10 -21 12 -50 21 -64 20 -16 -2 -27 2 -28 10 -3 23 -4 23
-19 8 -9 -8 -21 -13 -28 -11 -26 9 -127 13 -132 4 -3 -5 -26 -8 -51 -7 -39 2
-50 8 -86 46 l-40 43 28 30 c25 26 105 83 214 152 14 9 32 16 40 16 8 0 53
-58 101 -132z m3557 -11 c29 -60 34 -65 81 -81 29 -9 51 -23 51 -31 0 -14 -39
-37 -81 -47 -16 -4 -39 -27 -63 -62 -21 -30 -42 -55 -46 -55 -8 0 -26 40 -36
83 -4 16 -12 30 -18 32 -6 2 -30 9 -53 15 -57 14 -55 34 7 65 33 17 55 35 61
53 30 74 40 92 53 92 7 0 27 -29 44 -64z m654 -283 c53 -47 163 -157 243 -244
81 -88 150 -159 154 -159 8 0 251 -266 251 -275 0 -4 -19 -5 -42 -3 -24 3 -74
-2 -113 -10 -38 -8 -78 -14 -87 -14 -10 0 -18 -3 -18 -9 0 -12 -77 -12 -85 0
-3 6 2 14 11 19 12 6 -10 13 -76 21 -107 14 -130 23 -131 54 -1 21 -1 21 -8
-3 -4 -14 -17 -27 -31 -31 -21 -6 -22 -7 -5 -9 l20 -1 -20 -8 c-11 -5 -45 -11
-77 -15 -44 -6 -60 -13 -75 -33 -45 -63 -56 -73 -73 -73 -9 0 -24 -7 -31 -16
-12 -15 -10 -16 16 -11 17 3 57 9 90 12 33 4 66 12 73 17 6 6 12 8 12 4 0 -4
12 0 28 7 15 8 35 12 44 8 22 -8 -27 -27 -177 -71 -60 -17 -183 -55 -271 -85
-119 -39 -165 -50 -173 -42 -8 8 -11 8 -11 0 0 -7 -9 -11 -19 -10 -11 0 -17 5
-14 10 3 5 -5 6 -18 3 -13 -3 -18 -3 -11 0 6 3 12 14 12 25 0 10 -6 19 -12 20
-10 0 -10 2 0 6 6 2 12 11 12 18 0 7 -6 15 -12 18 -19 7 72 97 97 97 16 0 17
2 5 10 -12 8 -12 10 5 9 11 0 68 20 128 43 102 41 108 45 128 86 29 58 16 74
-60 71 -31 -2 -62 -8 -70 -13 -10 -8 -15 -8 -18 2 -9 26 -34 10 -59 -40 -15
-29 -40 -68 -55 -86 -16 -18 -29 -37 -29 -43 0 -6 -19 -31 -42 -55 -24 -25
-46 -53 -50 -62 -6 -15 -7 -15 -7 1 -1 10 -5 15 -11 12 -6 -4 -10 5 -10 19 0
19 -5 26 -20 26 -13 0 -20 7 -20 20 0 11 -6 20 -14 20 -17 0 -38 54 -29 76 5
14 3 14 -15 3 -14 -9 -20 -20 -16 -31 3 -10 0 -18 -6 -18 -6 0 -8 5 -5 10 3 6
1 10 -4 10 -6 0 -11 -6 -11 -14 0 -7 -8 -20 -17 -27 -15 -12 -16 -12 -10 4 25
67 226 388 335 537 51 68 150 208 251 350 l34 49 61 -51 c34 -27 105 -88 158
-135z m-2272 -32 c0 -4 -28 -21 -62 -39 -35 -18 -75 -40 -90 -50 -32 -20 -48
-10 -51 33 -1 21 4 32 19 40 12 6 28 16 36 22 27 23 148 18 148 -6z m1521
-162 c16 -8 17 -12 3 -44 -50 -121 -321 -631 -330 -623 -5 5 24 131 41 178 9
25 34 115 55 200 45 179 75 284 85 301 8 13 117 4 146 -12z m2123 -97 c18 -37
45 -99 61 -139 l27 -71 87 -12 c139 -18 157 -23 153 -46 -6 -31 -26 -47 -121
-94 -85 -41 -91 -46 -91 -75 -1 -44 -34 -272 -41 -279 -5 -5 -86 141 -142 254
-12 24 -17 25 -127 30 -123 5 -140 10 -140 41 0 23 53 63 158 117 l79 41 16
139 c24 200 26 203 81 94z m-5994 -19 c0 -27 33 -72 63 -84 l29 -12 -46 -29
c-25 -15 -46 -35 -46 -43 0 -23 -41 -14 -78 17 -17 14 -36 28 -42 30 -8 2 -7
13 4 33 8 17 18 42 21 58 3 17 12 27 23 27 9 0 26 7 36 15 21 16 36 11 36 -12z
m-655 -127 c38 -41 140 -148 225 -238 86 -89 210 -224 275 -298 66 -74 154
-173 196 -220 171 -190 236 -280 202 -280 -32 0 -296 88 -325 109 -25 17 -76
84 -148 193 -61 91 -118 172 -128 180 -15 12 -16 11 -4 -4 8 -9 10 -23 6 -29
-4 -7 -3 -9 3 -6 6 4 13 -2 16 -13 4 -15 -1 -22 -18 -26 -21 -5 -23 -9 -14
-31 20 -54 6 -33 -52 77 -33 63 -67 126 -76 139 -31 48 -253 492 -253 507 0
29 26 12 95 -60z m6163 54 c29 -27 28 -54 -3 -68 -51 -23 -90 -9 -60 21 8 9
15 27 15 41 0 31 18 33 48 6z m-5191 -387 c118 -143 118 -150 3 -122 -8 2 -36
26 -63 52 -26 26 -52 45 -57 42 -6 -3 -10 -3 -10 1 0 8 72 73 82 74 3 0 24
-21 45 -47z m5277 -166 c48 -54 84 -102 81 -107 -9 -15 -305 -251 -322 -257
-12 -5 -15 -2 -10 10 5 13 1 17 -16 18 -21 0 -21 1 -2 9 15 6 16 9 4 9 -20 1
-52 35 -42 45 4 4 0 4 -10 0 -13 -5 -16 -2 -11 9 6 16 -24 66 -39 67 -5 0 -5
-4 -2 -10 4 -6 -1 -7 -10 -3 -13 4 -1 22 57 82 40 42 107 111 148 154 41 42
78 76 82 75 3 -2 45 -47 92 -101z m-2651 -71 c3 -6 -2 -20 -9 -31 -14 -19 -15
-18 -42 9 -15 16 -22 26 -16 22 7 -3 17 1 24 9 13 15 36 11 43 -9z m-4019
-102 c292 -78 378 -101 476 -129 129 -37 504 -159 615 -200 50 -18 117 -38
150 -44 33 -6 110 -27 170 -47 72 -23 139 -37 193 -41 l82 -6 0 -77 0 -78 -67
-11 c-38 -7 -89 -23 -114 -36 -26 -13 -83 -31 -128 -40 -76 -16 -87 -16 -157
0 -72 16 -93 27 -125 71 -17 23 -197 117 -324 169 -49 20 -112 49 -140 64 -27
16 -117 63 -200 106 -82 43 -208 108 -280 146 -71 37 -177 91 -234 121 -95 48
-133 78 -101 78 7 0 90 -21 184 -46z m7404 -57 c17 -24 29 -52 27 -63 -2 -10
-4 -27 -4 -37 -1 -9 -12 -23 -26 -29 -14 -6 -24 -16 -22 -22 2 -6 -6 -21 -19
-33 -15 -13 -19 -23 -12 -25 7 -3 5 -7 -5 -11 -9 -3 -17 -2 -17 3 0 13 -77 13
-85 0 -7 -12 -105 -10 -105 2 0 4 -5 8 -11 8 -7 0 -9 -10 -5 -25 4 -14 2 -25
-4 -25 -5 0 -10 14 -10 32 0 29 -1 30 -17 16 -10 -9 -35 -18 -55 -22 -24 -4
-38 -13 -38 -21 0 -8 -6 -15 -13 -15 -8 0 -25 -9 -38 -21 -13 -12 -45 -32 -71
-45 -27 -13 -48 -28 -48 -32 0 -7 -15 -14 -88 -42 -28 -11 -36 -11 -49 3 -14
14 -12 17 18 33 19 9 59 34 89 54 30 20 102 65 160 100 107 65 326 208 369
241 34 27 44 24 79 -24z m-3018 13 c0 -5 6 -9 13 -7 13 2 12 -23 -4 -85 l-10
-37 -60 46 -60 47 27 21 c28 22 94 33 94 15z m-4364 -61 c19 -22 19 -22 -1
-11 -11 6 -27 16 -35 22 -13 8 -13 10 1 10 9 0 24 -10 35 -21z m3963 -25 c231
-58 398 -188 498 -387 74 -146 77 -257 13 -387 -15 -30 -33 -73 -40 -95 -7
-22 -44 -85 -83 -140 -78 -112 -104 -142 -130 -157 -16 -8 -17 -7 -8 9 5 11
27 41 49 67 48 58 117 182 142 256 18 55 41 191 33 200 -2 2 -89 -24 -194 -59
-104 -35 -192 -61 -196 -58 -3 4 -16 -18 -28 -48 -35 -86 -130 -181 -410 -414
-268 -223 -435 -368 -573 -499 -57 -54 -86 -54 -90 0 -3 31 3 44 35 79 47 53
305 286 459 416 276 232 438 378 468 421 46 68 86 112 101 112 7 0 18 -12 24
-27 9 -24 9 -20 4 22 -12 106 -56 166 -157 211 -85 39 -164 43 -247 14 -89
-31 -130 -54 -160 -87 -24 -26 -130 -214 -157 -276 -16 -37 -36 -25 -28 16 3
17 26 63 51 103 50 80 56 97 23 61 -26 -28 -48 -25 -49 6 0 12 -3 16 -6 10 -6
-17 -23 -16 -23 1 0 16 -60 28 -60 12 0 -6 -7 -2 -15 8 -15 20 -15 20 -16 0
-1 -17 -2 -17 -6 -1 -5 18 -5 18 -19 0 -13 -17 -15 -17 -28 0 -7 9 -25 17 -39
17 -36 0 -30 -12 65 -137 53 -71 78 -113 78 -131 0 -16 3 -32 8 -38 4 -5 -3 0
-14 11 -12 11 -35 32 -51 47 -16 14 -47 57 -69 94 -68 116 -114 158 -207 188
-18 6 -17 9 9 54 105 180 265 346 414 429 69 39 218 92 290 103 82 13 230 2
339 -26z m1626 7 c279 -57 501 -238 577 -470 12 -36 18 -84 18 -146 0 -95 -9
-120 -44 -127 -12 -2 -24 -20 -35 -58 -20 -62 -49 -122 -96 -196 l-33 -51 59
-39 c127 -82 210 -278 196 -463 -7 -89 -20 -131 -41 -131 -9 0 -38 -34 -67
-76 -28 -42 -53 -73 -56 -70 -3 3 11 44 31 90 46 107 57 167 47 242 -20 140
-64 236 -140 307 -47 44 -139 97 -169 97 -25 0 8 39 73 85 35 25 80 68 99 94
55 75 96 175 64 154 -19 -11 -72 -10 -80 2 -5 6 -11 5 -18 -5 -8 -13 -13 -13
-40 2 -16 9 -30 13 -30 8 0 -5 -11 1 -24 14 -19 17 -37 22 -78 23 -29 0 -56
-4 -59 -9 -4 -6 -10 7 -14 28 -18 100 -93 187 -188 218 -97 32 -153 32 -263
-2 -54 -17 -116 -43 -136 -57 -51 -35 -119 -127 -176 -236 -54 -106 -72 -121
-72 -60 0 109 -165 323 -277 360 -47 16 -63 40 -36 55 10 5 72 62 138 126 183
175 287 238 485 289 100 26 264 27 385 2z m-2870 -41 c3 -5 -3 -31 -14 -56
-13 -29 -21 -65 -20 -98 l2 -51 11 60 c9 47 14 56 20 40 10 -23 21 -583 12
-574 -7 7 -9 28 -26 284 -6 93 -13 171 -16 174 -4 4 -9 -764 -9 -1339 0 -241
0 -246 25 -295 20 -41 36 -56 81 -80 72 -38 89 -53 89 -76 0 -17 -8 -19 -61
-19 l-61 0 -66 64 -65 63 -2 539 c-1 296 -5 556 -10 577 -7 33 -11 38 -29 32
-49 -14 -76 -12 -76 8 0 17 -1 17 -16 3 -14 -14 -18 -14 -44 -1 -26 14 -29 14
-24 0 4 -8 1 -15 -5 -15 -6 0 -11 6 -11 14 0 16 -27 29 -42 19 -7 -3 -8 -1 -4
5 4 7 2 12 -3 12 -6 0 -11 -6 -11 -12 0 -7 -10 7 -23 32 -12 25 -26 48 -32 52
-6 5 -5 8 3 8 9 0 7 9 -7 29 -11 15 -18 31 -15 34 3 3 1 8 -5 12 -8 4 -11 -24
-11 -87 0 -51 -2 -253 -4 -448 -2 -195 -5 -460 -5 -588 l-1 -233 -53 -53 c-38
-37 -66 -56 -98 -64 -24 -6 -45 -9 -48 -7 -2 3 19 29 46 58 91 96 84 37 86
743 1 343 0 624 -3 624 -4 0 -10 -4 -15 -9 -14 -14 -197 -82 -203 -76 -3 3 1
5 8 5 11 0 11 3 2 12 -7 7 -12 32 -13 58 0 25 -4 54 -9 65 -6 13 -8 -5 -6 -54
2 -40 -1 -102 -7 -138 -9 -54 -17 -70 -45 -94 -18 -16 -37 -29 -42 -29 -6 0
-10 77 -10 198 0 176 -3 202 -21 241 -19 43 -19 45 -2 63 30 29 236 143 461
253 198 98 220 106 295 114 117 12 145 12 152 1z m-2555 -60 c0 -5 -2 -10 -4
-10 -3 0 -8 5 -11 10 -3 6 -1 10 4 10 6 0 11 -4 11 -10z m34 -19 c3 -4 27 -14
53 -22 27 -7 109 -43 183 -80 74 -37 146 -70 160 -74 28 -8 119 -50 295 -135
127 -62 199 -120 177 -142 -17 -17 -67 1 -255 90 -189 91 -232 113 -349 184
-47 29 -122 74 -165 100 -90 55 -133 87 -116 88 6 0 14 -4 17 -9z m6956 -51
c0 -5 -4 -10 -10 -10 -5 0 -10 5 -10 10 0 6 5 10 10 10 6 0 10 -4 10 -10z
m478 -134 c25 -34 49 -54 77 -63 22 -7 43 -17 48 -22 17 -17 -4 -50 -47 -75
-32 -19 -51 -40 -73 -82 -16 -32 -33 -59 -38 -61 -6 -2 -21 26 -33 61 l-23 65
-55 11 c-30 6 -54 17 -54 24 0 7 20 26 45 44 25 18 50 42 55 54 5 13 16 40 24
61 9 21 20 37 26 35 6 -2 27 -25 48 -52z m-5968 -270 c0 -27 -21 -36 -93 -36
-30 0 -46 4 -42 10 3 6 15 10 25 10 10 0 31 5 47 12 15 6 31 11 36 10 4 -1 7
5 7 14 0 8 5 12 10 9 6 -3 10 -17 10 -29z m5586 -141 c58 -93 178 -288 265
-433 154 -254 158 -263 139 -280 -10 -9 -103 -61 -207 -115 -420 -218 -729
-383 -865 -463 -117 -69 -189 -97 -236 -92 l-31 3 62 49 c111 89 236 164 492
296 88 45 196 102 240 125 44 23 145 72 225 109 80 37 156 75 170 86 35 28
-152 -59 -443 -206 -136 -69 -252 -122 -257 -119 -6 3 -13 -1 -16 -9 -5 -13
-9 -12 -27 5 -12 11 -30 18 -39 15 -10 -2 -21 0 -24 5 -3 5 -14 9 -25 9 -10 0
-19 5 -19 11 0 6 -9 9 -19 6 -12 -3 -27 3 -37 14 -9 10 -25 19 -35 19 -10 0
-23 8 -28 18 -6 9 -11 13 -11 7 0 -5 -7 1 -16 13 -8 12 -22 22 -30 22 -8 0
-14 5 -14 10 0 6 -15 18 -34 26 -33 17 -34 17 -40 104 -5 64 -17 114 -42 182
-20 51 -38 103 -40 115 -2 12 -9 34 -14 48 -9 23 -6 28 20 43 16 9 30 21 30
25 0 5 -20 -3 -44 -17 -48 -28 -71 -32 -81 -15 -17 27 139 138 360 256 286
153 511 276 530 289 11 8 23 13 27 12 4 -2 55 -79 114 -173z m-6275 -146 c64
-37 124 -81 135 -96 12 -19 18 -46 19 -83 l0 -55 -39 -3 c-78 -7 -175 26 -386
131 l-205 102 -16 80 c-8 44 -19 91 -22 105 -4 14 -4 19 -1 12 3 -7 13 -16 22
-21 14 -7 17 -4 17 19 0 17 -5 26 -12 23 -6 -2 -14 5 -18 16 -3 12 -11 18 -17
15 -7 -4 -8 -2 -4 4 4 7 -7 17 -27 26 -19 8 -38 19 -41 25 -11 17 462 -221
595 -300z m4737 131 c-8 -82 -90 -162 -193 -189 -22 -5 -80 -12 -129 -15 -49
-3 -91 -8 -95 -11 -3 -4 -8 -70 -11 -148 -5 -144 -12 -164 -44 -132 -12 13
-16 39 -17 118 0 56 -4 139 -8 185 -3 46 -4 85 0 87 3 3 62 7 130 10 180 9
211 18 260 73 46 53 88 84 102 75 5 -3 7 -27 5 -53z m-4266 -62 c10 -35 23
-88 28 -119 l11 -57 74 -11 c96 -14 122 -27 135 -67 13 -39 72 -94 101 -94 30
0 102 -79 139 -153 27 -56 32 -75 28 -114 -3 -27 -11 -61 -17 -76 -9 -24 -14
-26 -30 -17 -12 6 -23 25 -26 48 -9 55 -44 127 -77 158 -15 15 -28 33 -28 41
0 23 -61 82 -112 107 -60 30 -124 34 -171 10 -42 -22 -42 -21 -27 -40 26 -30
-9 -31 -118 -3 -68 17 -108 32 -110 42 -2 7 26 41 62 74 61 57 64 62 47 77
-17 16 -131 235 -131 252 0 6 45 9 103 7 l102 -2 17 -63z m-1457 -58 c55 -20
163 -63 240 -95 77 -32 155 -64 173 -71 l33 -13 -16 -38 c-9 -21 -32 -78 -52
-128 -19 -49 -39 -100 -44 -112 l-8 -22 -95 34 c-52 19 -112 42 -133 51 -21
10 -47 21 -58 25 -18 6 -18 7 -1 8 12 1 16 6 12 16 -3 8 -2 15 2 15 4 0 7 11
7 24 0 13 -3 22 -7 19 -5 -2 -8 -1 -9 4 0 4 -2 26 -4 48 -2 22 -4 50 -5 63 0
13 -5 20 -10 17 -7 -4 -9 3 -6 19 3 14 0 28 -5 31 -5 4 -9 14 -9 23 0 19 -49
72 -67 72 -7 0 -13 7 -13 15 0 8 -3 14 -7 13 -5 -2 -19 6 -33 16 -19 14 -20
17 -5 11 11 -4 65 -24 120 -45z m8020 24 c19 -29 25 -72 10 -75 -5 -1 -41 -17
-79 -37 -39 -19 -112 -50 -164 -67 l-94 -32 -15 33 c-9 17 -13 39 -10 48 4 9
66 45 139 80 187 89 187 89 213 50z m-7525 -14 c0 -5 -4 -10 -9 -10 -6 0 -13
5 -16 10 -3 6 1 10 9 10 9 0 16 -4 16 -10z m181 -290 c63 -17 188 -46 279 -66
91 -19 252 -57 358 -84 184 -47 195 -51 245 -93 28 -25 80 -64 114 -88 94 -68
293 -219 293 -224 0 -6 -40 10 -83 31 -56 28 -209 135 -290 201 -50 41 -79 59
-82 51 -2 -7 -18 -50 -35 -96 -16 -45 -39 -120 -51 -165 -11 -45 -41 -127 -66
-182 -26 -55 -63 -147 -83 -205 -31 -89 -40 -106 -59 -108 -13 -2 -27 0 -31 5
-5 4 9 59 31 122 22 63 37 116 34 119 -3 3 -5 0 -5 -6 0 -6 -20 -41 -45 -77
-25 -37 -42 -71 -39 -76 3 -5 0 -8 -8 -7 -8 2 -14 -9 -16 -28 l-3 -30 -172
-17 c-291 -28 -326 -30 -340 -19 -6 6 -15 11 -19 11 -41 6 -68 15 -68 22 0 5
-3 8 -7 7 -5 0 -15 2 -23 5 -53 22 -76 30 -85 28 -5 -2 -7 0 -3 4 4 4 -2 17
-13 29 -13 14 -19 31 -16 49 3 23 0 27 -20 27 -12 0 -31 7 -42 16 -15 14 -17
22 -9 56 5 23 7 42 5 45 -7 6 -79 -195 -73 -205 3 -5 31 -14 63 -21 147 -31
323 -95 323 -116 0 -6 -8 -19 -18 -28 -18 -16 -26 -15 -133 22 -64 22 -144 47
-180 56 -104 26 -129 36 -129 50 0 8 13 49 30 92 16 43 65 177 109 298 211
583 227 625 239 625 5 0 61 -14 123 -30z m1010 -60 l24 -20 -35 14 c-19 7 -42
16 -50 19 -9 3 -4 6 11 6 15 1 37 -8 50 -19z m3284 -102 c32 -62 65 -106 154
-207 75 -85 146 -125 253 -143 112 -18 191 8 293 100 l48 42 -7 81 c-7 87 2
97 29 32 22 -52 19 -129 -7 -182 -87 -180 -311 -229 -528 -116 -68 36 -93 60
-213 198 l-58 67 -60 -52 c-58 -50 -156 -163 -177 -203 -8 -16 -3 -32 29 -84
21 -36 39 -68 39 -72 0 -4 -9 -9 -20 -12 -19 -5 -44 18 -103 95 l-18 23 6 -44
6 -45 -19 25 c-35 45 -72 108 -72 124 0 8 24 31 54 51 30 19 90 79 136 132
135 161 205 242 206 242 1 0 14 -24 29 -52z m-4920 -260 c11 -24 28 -56 38
-72 22 -31 16 -40 -31 -52 -13 -4 -29 -20 -37 -41 -18 -42 -34 -39 -58 9 -12
26 -27 39 -47 43 -44 10 -56 30 -28 49 12 9 27 25 33 36 13 25 74 69 96 70 9
0 23 -17 34 -42z m4491 -52 c-6 -31 -23 -51 -66 -79 -22 -13 -56 -15 -255 -12
-126 2 -314 5 -417 7 -207 3 -198 -2 -120 72 l43 41 410 0 411 0 -6 -29z
m3164 -55 c0 -24 -134 -101 -535 -306 -126 -65 -255 -135 -286 -155 -93 -62
-136 -83 -154 -76 -26 10 -13 27 44 58 29 16 62 37 73 48 11 10 57 38 102 61
44 23 97 52 116 65 19 13 37 24 41 24 3 0 57 28 120 63 63 34 164 88 224 119
61 31 130 68 155 82 45 26 100 35 100 17z m-5840 -162 c30 -6 48 -15 43 -20
-5 -5 -48 -12 -97 -15 -58 -5 -94 -13 -108 -23 -19 -16 -19 -17 31 -45 93 -50
35 -62 -94 -20 -44 15 -93 26 -108 26 -25 -1 -97 23 -97 32 0 4 165 62 195 69
40 9 185 7 235 -4z m5905 -218 c67 -20 125 -42 125 -50 0 -4 -13 -14 -28 -23
-16 -9 -79 -64 -140 -121 -103 -96 -246 -196 -259 -183 -4 3 -11 -1 -17 -9
-12 -16 -156 -47 -156 -33 0 4 9 8 21 8 30 0 59 18 53 34 -3 7 2 20 10 29 9 9
16 18 16 21 0 10 -52 7 -178 -10 -110 -14 -123 -14 -158 1 l-39 17 50 22 c28
13 88 38 133 56 122 49 120 55 -16 53 -160 -4 -166 -4 -172 -11 -11 -15 -51
-32 -72 -31 -19 1 -17 3 7 9 25 6 26 8 7 9 -14 1 -20 5 -17 12 4 6 14 8 22 5
8 -3 12 -2 9 2 -7 11 57 70 109 103 61 39 188 84 285 103 46 8 364 -2 405 -13z
m-1228 -230 c105 -27 205 -73 313 -143 101 -65 160 -114 160 -135 0 -7 -7 -28
-16 -46 -26 -52 -205 -337 -211 -337 -3 0 -3 11 -1 25 3 14 1 25 -3 25 -5 0
-9 -6 -10 -12 -5 -116 -12 -122 -81 -66 -135 110 -337 196 -435 185 -50 -5
-83 -30 -83 -62 0 -44 55 -73 275 -144 214 -69 314 -119 385 -190 60 -61 112
-154 130 -236 12 -54 7 -215 -10 -304 -23 -121 -89 -232 -189 -317 -126 -108
-287 -164 -470 -164 -199 0 -358 52 -512 166 -120 90 -219 183 -219 207 0 9
26 61 57 115 31 53 82 144 114 201 73 131 73 132 100 95 109 -144 345 -265
491 -251 59 5 128 49 128 82 0 48 -68 85 -265 145 -180 55 -245 85 -327 153
-82 69 -118 120 -170 245 -35 82 -42 111 -46 184 -16 315 186 548 523 601 75
12 291 -1 372 -22z m-4485 -111 c15 -69 53 -237 84 -375 30 -137 65 -295 77
-350 12 -55 23 -89 24 -75 14 132 33 240 79 440 67 288 110 459 119 468 13 13
517 15 525 2 9 -14 1 -62 -9 -55 -8 4 -37 -50 -53 -100 -5 -16 -11 -59 -12
-95 -3 -74 -13 -113 -27 -104 -5 3 -6 10 -3 16 4 7 2 8 -4 4 -16 -10 -15 -36
1 -36 9 0 8 -3 -2 -9 -9 -6 -14 -32 -16 -77 -1 -38 -7 -80 -13 -94 -6 -14 -18
-55 -28 -92 -11 -40 -22 -62 -26 -55 -5 7 -8 0 -8 -17 0 -16 -3 -26 -7 -22
-10 9 -48 -102 -73 -209 -11 -49 -29 -115 -40 -145 -11 -30 -22 -80 -25 -110
-6 -49 -8 -72 -14 -145 -1 -17 -3 -18 -11 -5 -7 11 -10 1 -9 -35 1 -31 -13
-100 -36 -180 -57 -197 -65 -228 -65 -246 0 -11 -12 -18 -37 -22 -229 -34
-361 -50 -376 -44 -9 3 -17 17 -17 29 0 13 -20 100 -44 193 -113 437 -145 564
-156 620 l-12 60 -33 -80 c-19 -45 -47 -147 -65 -235 -17 -85 -47 -213 -67
-285 -20 -74 -37 -162 -39 -204 -3 -41 -5 -76 -7 -77 -3 -3 -395 -34 -428 -34
-23 0 -27 5 -36 53 -19 94 -142 610 -164 687 -29 103 -137 532 -194 775 -26
110 -60 235 -76 278 l-28 77 32 0 c86 0 470 20 491 26 29 7 29 7 66 -170 16
-78 52 -244 79 -371 28 -126 54 -263 58 -303 6 -76 23 -110 23 -47 0 19 9 77
20 128 37 165 150 610 174 687 l24 75 149 6 c81 3 161 5 178 5 l29 -1 28 -125z
m1691 33 c14 -49 58 -194 98 -323 87 -288 143 -484 174 -614 14 -54 43 -162
66 -240 23 -78 50 -172 61 -209 13 -43 24 -65 30 -59 16 16 1 1479 -16 1515
-8 16 16 17 422 17 342 0 446 -3 509 -15 217 -41 350 -140 446 -331 61 -120
74 -297 32 -426 -18 -55 -35 -76 -35 -43 0 27 -15 15 -34 -28 -44 -101 -56
-141 -44 -148 7 -5 -11 -29 -51 -69 l-62 -62 86 -150 c47 -83 85 -158 85 -169
0 -28 -22 -69 -37 -69 -8 0 -13 11 -13 28 0 45 -181 329 -202 316 -7 -4 -6 -9
2 -14 25 -15 -8 -18 -49 -4 -38 13 -43 13 -62 -5 -25 -23 -109 -37 -120 -19
-4 7 -11 9 -16 5 -12 -13 19 -28 50 -24 15 2 27 0 27 -5 0 -17 -54 -30 -87
-20 -23 7 -33 7 -37 -2 -2 -6 -5 -3 -5 7 -1 27 -2 31 -12 49 -5 10 -15 17 -21
15 -7 -1 -14 7 -16 18 -4 19 -4 19 15 3 23 -22 29 -22 36 -5 3 8 0 14 -6 14
-7 1 -27 4 -44 8 -39 9 -41 0 -8 -40 13 -16 28 -34 33 -40 4 -5 11 -18 15 -28
4 -10 11 -15 17 -12 5 3 10 -2 10 -12 1 -17 2 -16 16 2 15 19 16 18 10 -18 -5
-24 -3 -44 5 -53 7 -8 9 -27 5 -49 -4 -19 -2 -72 4 -116 6 -45 9 -83 7 -86
-15 -14 -136 202 -134 240 1 21 -3 22 37 -8 18 -14 35 -23 38 -21 9 10 -79
114 -105 124 -15 6 -58 12 -94 14 l-67 4 -7 -232 c-4 -128 -4 -260 0 -295 l7
-62 -198 7 c-184 6 -200 9 -221 28 -13 12 -35 22 -49 23 -18 0 -40 16 -68 46
-38 43 -47 66 -130 333 -50 157 -93 291 -96 296 -4 6 -71 13 -155 16 -96 3
-152 9 -156 16 -4 7 -9 -1 -11 -18 l-3 -29 -184 -3 c-119 -2 -188 1 -196 8 -7
6 -82 14 -168 17 l-155 6 -12 -42 c-6 -23 -8 -47 -4 -53 4 -6 3 -8 -3 -5 -7 4
-25 -36 -47 -106 -19 -61 -58 -184 -86 -271 -27 -88 -49 -160 -48 -160 2 -1
79 1 173 4 l170 5 21 65 c11 36 32 104 45 152 l24 88 270 0 270 0 19 -82 c10
-46 29 -118 42 -160 23 -72 27 -78 52 -78 21 -1 14 -6 -32 -25 -33 -14 -61
-23 -63 -21 -3 3 -40 150 -60 239 l-8 39 -209 -2 c-202 -1 -209 -1 -227 -23
-21 -24 -47 -101 -75 -220 l-19 -77 -80 0 c-44 0 -162 -5 -263 -12 -100 -6
-185 -9 -188 -6 -3 4 3 23 14 45 47 91 123 324 236 723 13 47 41 139 61 205
21 66 58 185 82 265 25 80 63 201 84 270 22 69 52 171 67 228 l27 102 286 0
286 0 26 -87z m-3173 -6 c0 -9 4 -25 9 -35 24 -47 41 -95 41 -113 0 -18 -4
-20 -31 -14 -17 4 -58 20 -92 35 -34 15 -82 33 -107 39 -81 21 -100 32 -100
57 0 41 27 49 159 49 109 0 121 -2 121 -18z m6703 -114 c-7 -2 -21 -2 -30 0
-10 3 -4 5 12 5 17 0 24 -2 18 -5z m-6633 -418 c10 -6 7 -11 -11 -18 -13 -6
-30 -11 -38 -13 -18 -3 -111 -67 -112 -76 -5 -30 0 -34 59 -45 57 -11 152 -58
152 -75 0 -13 -89 -32 -415 -92 -183 -33 -245 -49 -245 -61 0 -4 45 -3 100 1
71 4 104 3 114 -5 24 -20 205 -14 296 9 45 12 187 25 179 17 -3 -4 -68 -23
-145 -43 -122 -32 -157 -37 -284 -40 -80 -3 -184 -6 -232 -7 l-87 -3 30 50
c16 28 51 89 77 135 82 147 188 233 322 260 30 6 64 13 75 15 30 7 150 0 165
-9z m6890 -109 c73 -26 140 -84 202 -176 71 -105 76 -129 21 -93 -32 21 -147
27 -139 8 2 -7 -4 -15 -15 -18 -10 -3 -17 -2 -15 2 2 3 -13 7 -35 7 -21 1 -39
-2 -39 -7 0 -5 -20 -9 -43 -9 -37 0 -50 6 -87 40 -24 22 -48 40 -53 40 -5 0
-7 9 -4 19 4 17 -5 21 -72 35 -125 27 -172 40 -174 51 -1 6 17 16 41 23 50 16
56 30 10 24 -31 -3 -30 -2 17 24 28 15 73 33 100 41 64 16 225 10 285 -11z
m-561 -32 c-15 -18 -22 -13 -13 10 3 9 10 13 16 10 5 -3 4 -12 -3 -20z m-1235
-149 l17 -30 -20 24 c-12 13 -21 28 -21 34 0 12 0 11 24 -28z m1716 -161 c6
-14 10 -27 10 -30 0 -14 -168 4 -250 26 -64 18 -34 25 111 28 l120 2 9 -26z
m308 5 c2 -9 -5 -20 -15 -24 -25 -12 -263 -17 -263 -6 0 8 79 25 169 36 25 3
47 8 50 11 11 11 56 -2 59 -17z m-6904 -152 c8 -28 22 -89 30 -134 9 -45 18
-94 22 -109 5 -19 4 -25 -5 -20 -6 4 -11 1 -11 -8 0 -9 -25 -22 -72 -36 -40
-12 -111 -35 -158 -51 -122 -42 -145 -43 -175 -7 -14 16 -25 35 -25 41 0 7 4
6 10 -3 8 -13 10 -13 10 2 0 9 6 19 13 22 6 3 -2 5 -19 3 -28 -3 -30 -1 -26
22 3 14 -1 28 -10 35 -15 11 -18 16 -18 39 0 6 -5 4 -11 -5 -5 -10 -17 -18
-24 -18 -21 0 -19 18 3 23 10 2 2 7 -20 11 -35 8 -54 26 -26 26 8 0 9 3 2 10
-7 7 -19 8 -37 1 -15 -6 -27 -7 -27 -3 0 4 39 21 88 39 307 112 417 154 436
167 11 7 24 12 28 10 4 -3 13 -28 22 -57z m2106 23 c0 -5 -4 -10 -10 -10 -5 0
-10 -7 -10 -15 0 -8 -4 -15 -10 -15 -6 0 -5 10 2 25 11 25 28 34 28 15z m35 0
c3 -5 1 -10 -4 -10 -6 0 -11 5 -11 10 0 6 2 10 4 10 3 0 8 -4 11 -10z m790 0
c3 -6 -1 -7 -9 -4 -18 7 -21 14 -7 14 6 0 13 -4 16 -10z m1370 -10 c-3 -5 -16
-15 -28 -21 -21 -10 -21 -9 2 10 25 23 36 27 26 11z m-2165 -19 c0 -6 -5 -13
-12 -17 -6 -4 -8 -3 -4 4 3 5 0 13 -6 15 -8 3 -6 6 5 6 9 1 17 -3 17 -8z
m4285 -56 c61 -18 169 -54 240 -80 154 -55 354 -119 448 -142 46 -12 67 -22
67 -33 0 -49 -81 -313 -99 -324 -7 -5 -26 0 -91 22 -8 3 -46 15 -85 28 -38 12
-135 46 -215 74 -183 65 -207 72 -214 54 -4 -10 -18 -9 -73 7 -37 12 -94 28
-125 36 -64 18 -63 11 -32 133 8 30 19 104 26 163 10 90 15 107 28 101 8 -3
65 -21 125 -39z m-2011 -295 l139 -145 88 0 c62 0 89 4 89 12 0 6 -14 35 -32
62 -36 59 -30 79 10 35 15 -17 59 -67 99 -111 39 -44 75 -93 79 -108 6 -26 5
-28 -17 -21 -13 3 -70 9 -126 13 -81 5 -104 9 -108 22 -3 9 -17 30 -31 46 -15
17 -23 23 -18 15 24 -47 167 -258 229 -340 126 -164 219 -319 203 -335 -5 -5
-238 69 -269 85 -11 6 -30 32 -42 58 -34 69 -167 302 -173 302 -3 0 -2 -10 1
-22 6 -18 1 -15 -18 10 -17 22 -27 29 -30 20 -3 -7 -6 0 -6 15 -1 16 -5 26
-11 22 -6 -4 -10 5 -10 19 0 14 -4 26 -10 26 -5 0 -10 9 -10 20 0 11 5 20 10
20 6 0 10 -9 10 -19 0 -10 7 -21 15 -25 8 -3 15 -4 15 -2 0 5 -118 234 -191
372 -32 61 -59 114 -59 118 0 14 38 -21 174 -164z m-4824 96 c0 -3 -4 -8 -10
-11 -5 -3 -10 -1 -10 4 0 6 5 11 10 11 6 0 10 -2 10 -4z m-40 -31 c0 -8 -4
-15 -10 -15 -5 0 -7 7 -4 15 4 8 8 15 10 15 2 0 4 -7 4 -15z m4812 -185 l17
-30 -25 16 c-13 9 -24 23 -24 30 0 23 14 16 32 -16z m-4233 -52 c5 -13 21 -68
36 -123 14 -55 29 -108 31 -117 8 -29 -21 -21 -49 12 -26 31 -61 40 -70 18 -4
-10 -8 -10 -15 1 -11 15 -36 5 -26 -11 4 -6 -2 -5 -15 1 -12 7 -26 9 -32 5 -6
-4 -15 0 -20 7 -7 11 -11 12 -17 1 -24 -36 -112 -5 -112 39 0 20 -10 19 -64
-4 -79 -35 -41 -9 112 75 170 93 213 115 225 117 4 1 11 -9 16 -21z m3148
-101 c92 -84 272 -238 328 -282 117 -90 265 -221 265 -233 0 -8 -7 -11 -17 -8
-10 3 -46 10 -80 15 -35 6 -91 16 -125 22 -35 6 -101 21 -148 35 -124 35 -510
112 -510 101 0 -22 178 -532 224 -642 15 -37 15 -38 0 -20 -34 41 -131 289
-206 525 -17 52 -33 98 -37 102 -4 4 -31 -34 -60 -85 -213 -369 -320 -583
-330 -658 -3 -29 -11 -54 -16 -56 -7 -2 -7 27 -1 86 9 85 8 93 -32 247 -22 87
-48 186 -56 219 -28 109 -66 292 -66 319 0 74 -45 4 -205 -320 -47 -94 -85
-176 -85 -181 0 -6 19 -33 43 -59 57 -64 137 -168 172 -224 16 -25 63 -83 104
-130 42 -47 95 -119 118 -160 23 -41 54 -90 70 -107 l28 -33 98 50 c54 27 113
51 130 54 18 3 46 10 63 15 33 9 53 2 89 -30 20 -18 71 -16 59 2 -3 5 4 9 16
9 19 0 21 -4 15 -31 -4 -17 -24 -63 -44 -102 -26 -52 -43 -73 -61 -78 -14 -3
-99 -9 -189 -12 l-165 -7 -32 38 c-159 181 -221 268 -374 527 -46 77 -102 168
-126 202 -49 69 -50 70 -30 92 17 19 130 245 140 281 4 14 39 88 77 165 l69
141 98 29 c53 16 230 75 392 131 162 57 305 103 317 103 13 1 46 -21 80 -52z
m3112 -91 c53 -24 144 -67 204 -95 59 -28 111 -51 116 -51 5 0 14 -7 21 -14 9
-12 7 -25 -13 -63 -33 -66 -50 -93 -60 -93 -4 0 -5 5 -2 10 3 6 1 10 -4 10 -6
0 -11 -6 -11 -14 0 -14 -36 -32 -53 -28 -4 1 -23 5 -43 8 -61 9 -330 130 -353
158 -10 12 -5 30 24 92 20 42 40 87 45 100 5 13 15 24 21 24 7 0 55 -20 108
-44z m-366 -38 c7 -42 -21 -68 -70 -68 -19 0 -32 -4 -29 -9 3 -4 -6 -13 -19
-19 -14 -7 -25 -16 -25 -21 0 -9 -84 -44 -215 -89 -186 -65 -482 -51 -624 29
-35 19 -88 76 -79 84 1 1 23 -3 48 -10 217 -59 210 -58 370 -58 173 1 240 14
399 78 49 19 100 35 115 35 14 0 26 6 26 13 1 17 48 50 60 42 6 -4 10 -3 9 2
-3 16 1 23 15 23 8 0 16 -14 19 -32z m-6333 17 c0 -6 -117 -65 -127 -65 -4 1
21 16 57 35 72 38 70 37 70 30z m320 -15 c0 -5 -4 -10 -10 -10 -5 0 -10 5 -10
10 0 6 5 10 10 10 6 0 10 -4 10 -10z m886 -44 c88 -43 268 -127 329 -154 39
-17 169 -74 290 -127 121 -53 230 -103 243 -111 16 -11 22 -24 22 -50 0 -37
20 -110 96 -351 l45 -142 -256 -343 c-141 -189 -269 -361 -286 -383 -17 -22
-36 -49 -44 -60 -12 -17 -17 -18 -42 -9 -52 22 -487 204 -593 249 -58 25 -141
57 -185 72 l-79 28 -38 90 c-31 72 -190 409 -230 488 -11 21 16 55 193 243
106 113 306 344 433 502 32 39 62 72 66 72 4 0 20 -6 36 -14z m2932 -61 c257
-61 765 -221 937 -295 353 -153 819 -330 871 -330 16 0 24 10 33 41 27 89 144
177 283 214 216 57 477 -75 559 -282 19 -47 23 -77 24 -158 0 -89 -3 -107 -28
-160 -15 -33 -38 -68 -50 -78 -12 -10 -16 -16 -9 -12 27 14 8 -15 -72 -106
-96 -110 -131 -130 -232 -137 -59 -4 -87 0 -158 23 -86 27 -180 77 -224 118
-42 39 -114 177 -92 177 5 0 10 -6 10 -13 0 -11 68 -47 89 -47 5 0 -11 30 -36
67 -25 37 -56 89 -69 115 -17 33 -31 48 -44 48 -11 0 -81 23 -155 50 -74 28
-145 50 -157 50 -13 0 -58 -8 -101 -17 -75 -16 -82 -16 -131 1 -28 10 -87 40
-131 66 -145 86 -219 126 -275 150 -208 87 -957 495 -968 528 -5 16 2 16 126
-13z m-1948 -8 c-29 -23 -100 -107 -100 -117 0 -5 8 -10 18 -10 11 0 29 -9 41
-19 28 -25 53 -17 129 41 57 43 57 37 -2 -51 -20 -29 -36 -61 -36 -71 0 -21
24 -43 34 -32 15 14 -4 -68 -24 -103 -30 -54 -25 -52 28 12 49 58 157 141 169
130 5 -6 -58 -124 -144 -268 -53 -90 -49 -108 62 -295 52 -87 95 -167 95 -176
0 -10 -10 -43 -22 -75 -21 -58 -193 -431 -202 -441 -6 -6 -110 35 -150 59 -16
10 -34 15 -39 12 -12 -7 0 31 23 77 10 19 64 98 120 175 104 142 170 257 170
295 0 12 -11 41 -25 65 -36 60 -113 265 -132 350 -22 98 -49 158 -81 177 -15
9 -56 24 -91 33 -35 9 -99 36 -143 59 l-79 43 68 33 c142 69 362 137 313 97z
m-1270 -22 c-7 -8 -18 -15 -24 -14 -28 3 -38 -3 -47 -31 -12 -34 -32 -37 -121
-19 -83 16 -108 29 -108 53 0 15 -3 17 -9 7 -5 -8 -11 -9 -15 -3 -12 20 42 22
207 8 50 -4 76 -3 73 3 -4 6 2 8 14 6 11 -2 22 1 26 6 3 6 8 8 11 5 3 -3 0
-12 -7 -21z m850 -30 c-29 -16 -60 -19 -60 -6 0 11 23 18 60 19 l25 1 -25 -14z
m-1435 -180 c22 -49 29 -55 67 -66 113 -30 127 -66 43 -111 -65 -35 -87 -62
-109 -131 -10 -32 -21 -57 -26 -57 -4 0 -22 35 -40 78 -19 42 -38 83 -43 90
-6 7 -33 12 -68 12 -32 0 -61 5 -64 11 -11 16 25 50 81 75 39 17 54 30 64 56
19 48 50 98 61 98 6 0 21 -25 34 -55z m3615 -78 c0 -1 -28 -29 -62 -62 -34
-33 -56 -51 -48 -40 35 50 110 120 110 102z m-157 -188 c-10 -17 -24 -36 -32
-42 -8 -7 -2 7 14 31 32 49 45 57 18 11z m1150 -36 c-26 -10 -12 -21 25 -21
50 1 150 -37 187 -71 17 -15 43 -33 58 -41 17 -9 24 -16 16 -19 -7 -2 -15 1
-17 8 -2 6 -13 11 -25 11 -28 0 -140 35 -192 59 -74 35 -108 83 -57 80 11 0
12 -3 5 -6z m-1247 -111 c-30 -48 -71 -124 -92 -167 -22 -48 -39 -73 -41 -63
-6 23 59 148 124 241 30 42 56 77 59 77 2 0 -20 -40 -50 -88z m767 -82 c103
-160 277 -479 277 -508 0 -5 -35 -27 -77 -50 -137 -75 -148 -82 -154 -100 -5
-13 -13 -3 -30 38 -13 30 -56 121 -95 202 -99 199 -102 212 -76 285 12 32 29
87 37 123 16 62 37 94 60 87 5 -2 32 -36 58 -77z m-258 -12 c-3 -13 -21 -104
-40 -202 -20 -102 -42 -187 -51 -197 -8 -9 -36 -24 -62 -34 -26 -10 -102 -46
-169 -81 -263 -138 -493 -215 -518 -174 -3 5 10 40 28 77 19 37 54 118 78 178
24 61 55 130 69 155 l26 45 75 -3 c41 -2 94 -8 118 -13 44 -10 45 -9 84 30 23
25 56 46 81 53 22 6 50 18 61 25 11 7 27 13 36 13 9 0 22 7 29 15 7 8 27 17
45 21 24 4 42 18 64 49 17 24 31 48 31 54 0 6 5 11 10 11 6 0 8 -10 5 -22z
m1485 -43 c52 -4 97 -11 98 -16 2 -5 13 -9 25 -9 34 -1 57 -24 57 -59 0 -40
-16 -40 -106 -2 -38 16 -107 41 -154 56 -100 32 -120 45 -59 40 24 -1 87 -6
139 -10z m-5267 -145 c58 -120 62 -131 47 -145 -9 -8 -21 -15 -26 -15 -5 0 -1
5 9 11 21 12 22 38 2 45 -8 4 -15 15 -15 25 0 10 -6 18 -12 17 -7 -2 -14 7
-16 20 -2 12 -8 20 -13 17 -5 -4 -9 -1 -9 5 0 6 -9 21 -21 33 -11 12 -27 34
-34 48 -12 22 -12 29 1 48 8 11 17 21 19 21 2 0 33 -59 68 -130z m4887 90 c21
-11 68 -25 105 -32 l66 -13 24 -80 c13 -44 29 -98 35 -121 11 -37 17 -43 64
-59 141 -49 254 -130 330 -238 49 -70 64 -107 76 -190 15 -99 -23 -258 -80
-342 -51 -73 -146 -164 -196 -187 -71 -31 -197 -31 -280 0 -79 30 -186 112
-244 188 -44 58 -47 65 -59 160 -26 210 -13 333 46 427 37 59 121 137 154 144
16 3 29 7 29 10 0 2 -11 25 -24 51 -25 50 -96 261 -96 287 0 19 3 19 50 -5z
m-18 -180 c5 -35 -6 -49 -20 -24 -10 18 -4 66 8 59 4 -3 10 -19 12 -35z
m-2650 -222 c85 -102 114 -150 115 -193 1 -24 -1 -29 -4 -14 -4 24 -10 27 -61
33 -31 3 -67 9 -79 12 -38 10 -38 -20 1 -116 47 -119 47 -120 -11 -108 -48 8
-93 8 -103 -2 -8 -8 -90 -49 -90 -45 0 2 18 67 40 144 60 209 114 341 139 341
5 0 29 -24 53 -52z m1591 -75 c29 -65 101 -272 111 -319 6 -29 5 -31 -16 -27
-14 3 -55 -11 -103 -35 -44 -21 -95 -42 -113 -45 -29 -6 -35 -3 -52 26 -11 17
-23 30 -27 27 -4 -3 -15 20 -24 52 l-18 56 39 41 c80 84 151 221 114 221 -8 0
-14 -4 -14 -9 0 -5 -10 -11 -22 -14 -13 -2 -40 -12 -60 -21 -65 -28 -42 -9 47
39 47 26 87 51 90 56 12 19 23 8 48 -48z m-233 -67 c0 -2 -7 -7 -16 -10 -8 -3
-12 -2 -9 4 6 10 25 14 25 6z m-200 -121 c0 -6 -56 -35 -67 -35 -14 1 39 40
53 40 8 0 14 -2 14 -5z m-801 -91 c10 -9 -35 -3 -49 6 -11 8 -7 9 15 4 17 -4
32 -8 34 -10z m630 6 c-29 -17 -142 -40 -194 -39 -48 1 -46 2 45 24 100 25
179 32 149 15z m-511 -27 c-10 -2 -28 -2 -40 0 -13 2 -5 4 17 4 22 1 32 -1 23
-4z m195 -10 c-13 -2 -33 -2 -45 0 -13 2 -3 4 22 4 25 0 35 -2 23 -4z m1167
-383 c0 -5 -9 -14 -21 -20 -19 -11 -20 -10 -9 9 11 22 30 29 30 11z"/>
<path d="M4516 8610 c-55 -65 -39 -174 35 -245 26 -25 39 -33 35 -21 -9 26 43
204 66 226 18 17 18 18 -12 44 -44 37 -90 35 -124 -4z"/>
<path d="M4413 8540 c0 -25 2 -35 4 -22 2 12 2 32 0 45 -2 12 -4 2 -4 -23z"/>
<path d="M3892 7784 c-29 -20 -52 -66 -52 -104 0 -40 47 -90 85 -90 91 0 152
124 90 185 -29 29 -88 34 -123 9z"/>
<path d="M3415 7569 c-66 -38 -72 -95 -16 -150 55 -55 117 -54 146 2 23 44 19
102 -9 128 -28 26 -92 37 -121 20z"/>
<path d="M3945 7479 c-211 -78 -415 -202 -415 -252 0 -19 30 -37 62 -37 22 0
232 91 356 154 98 50 160 124 129 155 -17 17 -45 12 -132 -20z"/>
<path d="M6961 7644 c0 -11 3 -14 6 -6 3 7 2 16 -1 19 -3 4 -6 -2 -5 -13z"/>
<path d="M7235 7530 c-13 -6 -15 -9 -5 -9 8 0 22 4 30 9 18 12 2 12 -25 0z"/>
<path d="M6130 7476 c0 -9 5 -16 10 -16 6 0 10 4 10 9 0 6 -4 13 -10 16 -5 3
-10 -1 -10 -9z"/>
<path d="M6560 7334 c-16 -10 -18 -13 -5 -8 11 4 30 7 42 7 13 -1 20 3 17 8
-8 13 -25 11 -54 -7z"/>
<path d="M1731 7425 c26 -48 29 -52 29 -34 0 8 -11 28 -25 44 l-26 30 22 -40z"/>
<path d="M2371 6571 c-20 -36 -13 -71 20 -102 37 -34 62 -36 107 -9 40 24 43
66 9 106 l-24 27 -7 -26 c-9 -36 -47 -36 -75 -1 -19 24 -20 25 -30 5z"/>
<path d="M6192 6323 c-23 -28 -72 -39 -103 -22 -14 7 -13 -1 7 -49 13 -31 26
-56 30 -56 10 2 97 145 91 150 -2 2 -13 -8 -25 -23z"/>
<path d="M8105 6008 c-47 -43 -57 -96 -25 -128 19 -19 30 -22 71 -18 53 5 89
31 115 80 19 37 18 45 -11 73 -38 39 -104 35 -150 -7z"/>
<path d="M7765 5824 c-44 -24 -82 -62 -96 -97 -12 -28 -11 -32 15 -53 49 -43
137 -26 189 35 30 36 36 91 12 111 -24 20 -87 22 -120 4z"/>
<path d="M8285 5776 c-27 -13 -58 -33 -69 -44 -10 -12 -100 -65 -199 -119
-228 -123 -288 -178 -245 -221 23 -23 59 -12 196 60 204 106 272 153 272 186
0 10 8 12 29 7 69 -15 143 23 157 81 6 22 2 32 -20 51 -34 29 -58 29 -121 -1z"/>
<path d="M8760 5586 c0 -9 7 -12 20 -9 11 3 17 9 14 14 -8 14 -34 10 -34 -5z"/>
<path d="M1844 5526 c-46 -46 -48 -104 -5 -147 40 -40 67 -37 113 11 32 34 38
48 38 84 0 86 -82 116 -146 52z"/>
<path d="M2205 5456 c-16 -7 -41 -25 -54 -40 -51 -54 -19 -148 52 -154 30 -3
42 3 81 41 50 48 57 76 31 126 -22 43 -55 51 -110 27z"/>
<path d="M1766 5225 c-57 -30 -70 -73 -39 -126 23 -39 44 -44 98 -20 80 35 91
117 20 149 -34 15 -44 15 -79 -3z"/>
<path d="M2044 5115 c-19 -19 -23 -31 -18 -48 10 -33 39 -79 68 -106 26 -24
27 -24 61 -8 66 32 71 93 10 154 -41 41 -85 44 -121 8z"/>
<path d="M8560 4560 c0 -5 5 -10 10 -10 6 0 10 5 10 10 0 6 -4 10 -10 10 -5 0
-10 -4 -10 -10z"/>
<path d="M8028 3605 c-3 -3 -95 -6 -206 -8 -151 -1 -204 -5 -214 -15 -11 -11
-8 -12 17 -8 17 4 24 3 17 0 -9 -4 -1 -19 27 -49 54 -58 68 -113 46 -172 -22
-57 -74 -109 -122 -122 -136 -38 -344 18 -502 134 -34 25 -66 43 -72 40 -5 -4
-50 -59 -99 -122 l-90 -117 22 -23 c26 -28 156 -116 238 -161 125 -69 338
-111 470 -92 76 11 255 69 303 99 48 30 141 130 166 180 29 57 61 183 61 242
0 26 -9 78 -21 115 -21 70 -31 89 -41 79z"/>
<path d="M4052 4400 c0 -14 2 -19 5 -12 2 6 2 18 0 25 -3 6 -5 1 -5 -13z"/>
<path d="M3991 4183 c-1 -6 -4 -20 -7 -30 -5 -17 -5 -17 6 0 6 10 9 23 6 30
-3 9 -5 9 -5 0z"/>
<path d="M3972 4110 c0 -14 2 -19 5 -12 2 6 2 18 0 25 -3 6 -5 1 -5 -13z"/>
<path d="M2264 3593 c18 -62 79 -318 96 -404 11 -57 30 -142 42 -188 l22 -83
35 6 c20 4 89 9 154 13 106 5 120 8 132 27 8 12 31 80 50 151 20 72 43 150 50
175 13 44 39 192 49 278 l4 43 -116 -3 -115 -3 -18 -64 c-25 -88 -34 -93 -49
-29 -7 29 -17 60 -22 68 -8 12 -8 12 -5 0 4 -17 -23 -51 -35 -44 -5 3 -6 10
-3 15 4 5 -1 16 -9 25 -15 14 -16 14 -17 -3 -1 -12 -3 -10 -8 7 -7 25 -9 25
-125 28 -109 2 -117 1 -112 -15z"/>
<path d="M3185 3590 c-3 -5 1 -20 10 -34 15 -23 15 -25 -2 -35 -17 -10 -17
-10 0 -11 9 0 17 -7 17 -15 0 -8 5 -15 11 -15 8 0 9 10 4 33 -5 17 -8 44 -8
60 0 26 -19 37 -32 17z"/>
<path d="M3255 3589 c-7 -11 26 -41 35 -32 3 3 -1 8 -8 10 -10 4 -10 8 -1 19
9 11 8 14 -4 14 -9 0 -19 -5 -22 -11z"/>
<path d="M3535 3590 c3 -5 -1 -10 -10 -10 -9 0 -13 -4 -10 -10 3 -5 -3 -10
-13 -10 -19 0 -36 -30 -33 -57 4 -27 -28 -12 -32 15 -3 21 -4 18 -6 -13 -2
-38 -2 -39 -18 -20 -15 19 -15 19 -10 -12 4 -20 1 -35 -7 -42 -16 -13 -94 -37
-153 -46 -24 -4 -43 -12 -43 -18 0 -7 23 -106 52 -220 l52 -208 95 7 c53 4
118 10 146 13 l49 6 34 105 c34 107 132 487 132 515 0 13 -19 15 -116 15 -74
0 -113 -4 -109 -10z m-15 -70 c0 -5 -7 -10 -15 -10 -8 0 -15 5 -15 10 0 6 7
10 15 10 8 0 15 -4 15 -10z"/>
<path d="M3240 3540 c0 -5 9 -10 21 -10 11 0 17 5 14 10 -3 6 -13 10 -21 10
-8 0 -14 -4 -14 -10z"/>
<path d="M5890 4078 l0 -118 125 0 c131 0 175 10 206 46 25 30 30 65 13 100
-29 62 -88 82 -242 86 l-102 3 0 -117z"/>
<path d="M4602 4040 c-6 -24 -9 -47 -6 -52 3 -4 0 -8 -6 -8 -7 0 -9 -7 -6 -16
3 -8 2 -12 -4 -9 -6 3 -10 5 -10 3 0 -2 -9 -34 -20 -73 -11 -38 -21 -91 -21
-117 -1 -27 -6 -51 -11 -54 -26 -16 3 -24 92 -24 55 0 100 4 100 9 0 7 -85
352 -93 376 -2 5 -8 -10 -15 -35z"/>
<path d="M5466 3555 c-3 -27 -6 -106 -6 -175 0 -69 -5 -181 -12 -248 -10 -105
-9 -125 3 -133 8 -5 93 -9 189 -9 l175 0 -3 290 -3 290 42 0 c62 0 44 8 -34
15 -60 5 -67 4 -67 -12 0 -12 -3 -14 -8 -6 -5 7 -13 9 -21 3 -8 -4 -20 -6 -27
-3 -6 2 -15 -1 -19 -7 -6 -9 -10 -9 -16 1 -6 10 -9 10 -9 2 0 -18 19 -26 33
-14 8 6 18 6 27 1 12 -8 11 -10 -5 -10 -12 0 -26 -5 -33 -12 -9 -9 -12 -9 -12
0 0 7 -4 12 -10 12 -5 0 -6 -7 -3 -17 4 -11 3 -14 -5 -9 -7 4 -12 19 -12 34
-1 25 -2 25 -14 10 -16 -22 -26 -23 -26 -3 0 8 6 15 13 16 6 0 3 4 -8 9 -11 4
-24 4 -29 0 -5 -5 -15 -6 -23 -3 -11 4 -12 8 -3 13 7 4 -5 9 -28 11 l-40 4 -6
-50z m101 -11 c-3 -3 -12 -4 -19 -1 -8 3 -5 6 6 6 11 1 17 -2 13 -5z"/>
<path d="M6420 3593 c0 -6 8 -17 18 -24 16 -13 16 -13 2 6 -8 11 -16 22 -17
24 -2 2 -3 0 -3 -6z"/>
<path d="M6170 3539 c0 -11 -4 -17 -10 -14 -5 3 -10 1 -10 -4 0 -6 7 -11 15
-11 9 0 15 9 15 25 0 14 -2 25 -5 25 -3 0 -5 -9 -5 -21z"/>
<path d="M6278 3548 c5 -5 16 -8 23 -6 8 3 3 7 -10 11 -17 4 -21 3 -13 -5z"/>
<path d="M6203 3528 c-3 -7 -1 -8 5 -4 7 4 12 2 12 -3 0 -6 7 -11 16 -11 9 0
14 5 12 12 -5 15 -36 19 -45 6z"/>
<path d="M1670 3141 c0 -5 7 -11 14 -14 10 -4 13 -1 9 9 -6 15 -23 19 -23 5z"/>
<path d="M6550 2751 c0 -6 4 -13 10 -16 6 -3 7 1 4 9 -7 18 -14 21 -14 7z"/>
<path d="M5488 2616 c19 -25 76 -76 85 -76 2 0 22 -16 43 -36 22 -19 48 -40
59 -45 11 -6 -9 17 -45 51 -35 33 -68 60 -73 60 -4 0 -22 16 -40 35 -36 40
-58 48 -29 11z"/>
<path d="M4673 2543 c9 -2 25 -2 35 0 9 3 1 5 -18 5 -19 0 -27 -2 -17 -5z"/>
<path d="M4748 2533 c12 -2 32 -2 45 0 12 2 2 4 -23 4 -25 0 -35 -2 -22 -4z"/>
<path d="M2875 2348 c-48 -26 -65 -51 -65 -95 0 -73 43 -99 115 -69 59 25 88
123 47 159 -21 19 -67 22 -97 5z"/>
<path d="M3758 2192 c-19 -20 -124 -156 -233 -302 -109 -146 -227 -301 -263
-345 -36 -44 -69 -85 -74 -92 -6 -7 0 -29 16 -60 13 -27 41 -92 62 -144 20
-52 38 -95 39 -97 8 -9 64 32 95 69 19 23 67 72 105 109 39 38 75 74 80 80 6
6 33 35 61 64 29 29 59 69 69 89 9 20 41 61 71 92 31 32 53 63 50 70 -3 9 0
12 8 9 9 -3 22 11 37 40 l22 46 -32 122 c-18 68 -41 158 -51 201 -9 42 -19 79
-22 82 -2 2 -20 -12 -40 -33z"/>
<path d="M3224 2166 c-17 -8 -41 -27 -53 -42 -28 -36 -23 -87 13 -122 32 -33
67 -24 123 32 35 35 43 50 43 79 0 60 -56 83 -126 53z"/>
<path d="M2743 2069 c-35 -35 -12 -62 121 -142 116 -70 152 -87 185 -87 57 0
51 77 -9 120 -14 10 -66 38 -116 63 -99 51 -161 66 -181 46z"/>
<path d="M2282 1813 c11 -21 61 -119 111 -218 90 -181 111 -212 170 -241 18
-9 39 -23 48 -31 9 -7 50 -17 90 -22 71 -8 181 -33 224 -51 11 -5 36 -11 55
-15 112 -19 130 -21 133 -12 2 6 11 5 24 -2 12 -6 36 -11 53 -11 31 0 32 1 26
36 -4 19 -21 71 -38 115 -25 67 -35 83 -62 94 -202 88 -459 206 -634 291 -118
57 -217 104 -218 104 -2 0 6 -17 18 -37z"/>
<path d="M3167 1556 c-9 -7 -17 -19 -17 -26 0 -12 -14 -11 -67 6 -10 3 -2 -4
17 -15 47 -27 55 -26 80 8 22 32 15 47 -13 27z"/>
<path d="M6993 2118 c-12 -6 -24 -16 -27 -23 -8 -22 32 -90 65 -109 30 -18 31
-18 70 8 56 38 53 85 -9 120 -10 6 -11 1 -6 -19 6 -25 5 -26 -27 -23 -30 3
-34 6 -32 31 2 29 -1 31 -34 15z"/>
<path d="M7992 2101 c-63 -22 -95 -49 -123 -108 -30 -62 -24 -171 14 -236 59
-100 162 -158 281 -158 115 0 177 35 234 130 21 36 26 57 26 110 -1 110 -62
196 -179 252 -73 35 -169 39 -253 10z m156 -45 c32 -8 59 -22 68 -35 8 -11 21
-21 29 -21 17 0 72 -46 86 -72 9 -17 8 -18 -8 -10 -10 6 -27 20 -38 32 -11 13
-38 34 -60 49 -35 22 -51 26 -125 26 -47 0 -100 -4 -119 -9 -22 -5 -31 -5 -27
2 3 6 20 13 36 17 17 4 30 10 30 15 0 21 61 24 128 6z"/>
<path d="M7192 1321 c-56 -15 -108 -56 -133 -108 -20 -40 -24 -64 -24 -138 0
-76 4 -98 24 -138 53 -103 135 -157 247 -165 62 -4 79 -1 130 22 75 34 101 59
130 121 65 136 -8 299 -169 381 -53 27 -150 39 -205 25z m-7 -89 c-11 -2 -39
-10 -63 -17 -32 -10 -42 -10 -39 -2 5 17 65 35 96 28 22 -4 23 -6 6 -9z"/>
<path d="M7094 699 c30 -19 113 -38 190 -43 70 -5 70 -5 15 4 -58 9 -169 34
-204 45 -19 6 -19 6 -1 -6z"/>
<path d="M7400 650 l-45 -7 40 -1 c22 0 51 4 65 8 32 10 5 10 -60 0z"/>
</g>
</svg>
